solid OpenSCAD_Model
  facet normal -1 0 0
    outer loop
      vertex 0 2 0
      vertex 0 2 7
      vertex 0 4.11122 0
    endloop
  endfacet
  facet normal -1 0 0
    outer loop
      vertex 0 4.11122 0
      vertex 0 2 7
      vertex 0 13 7
    endloop
  endfacet
  facet normal -1 0 0
    outer loop
      vertex 0 4.38878 0
      vertex 0 13 7
      vertex 0 13 0
    endloop
  endfacet
  facet normal -1 0 0
    outer loop
      vertex 0 4.11122 0
      vertex 0 13 7
      vertex 0 4.38878 0
    endloop
  endfacet
  facet normal -0.998027 -0.0627922 0
    outer loop
      vertex 0 2 0
      vertex 0.015771 1.74933 0
      vertex 0 2 7
    endloop
  endfacet
  facet normal -0.998027 -0.0627922 0
    outer loop
      vertex 0 2 7
      vertex 0.015771 1.74933 0
      vertex 0.015771 1.74933 7
    endloop
  endfacet
  facet normal 0 0 -1
    outer loop
      vertex 0 2 0
      vertex 0 4.11122 0
      vertex 0.015771 1.74933 0
    endloop
  endfacet
  facet normal 0 0 -1
    outer loop
      vertex 0.015771 1.74933 0
      vertex 0 4.11122 0
      vertex 2.08494 0.5 0
    endloop
  endfacet
  facet normal 0 0 -1
    outer loop
      vertex 8.58013 4.25 0
      vertex 14.4121 0.587881 0
      vertex 6.41506 0.5 0
    endloop
  endfacet
  facet normal 0 0 -1
    outer loop
      vertex 2.08494 8 0
      vertex 0 4.38878 0
      vertex 0 13 0
    endloop
  endfacet
  facet normal 0 0 -1
    outer loop
      vertex 2.08494 8 0
      vertex 0 13 0
      vertex 6.41506 8 0
    endloop
  endfacet
  facet normal 0 0 -1
    outer loop
      vertex 6.41506 8 0
      vertex 0 13 0
      vertex 0.015771 13.2507 0
    endloop
  endfacet
  facet normal 0 0 -1
    outer loop
      vertex 6.41506 8 0
      vertex 0.015771 13.2507 0
      vertex 0.062834 13.4974 0
    endloop
  endfacet
  facet normal 0 0 -1
    outer loop
      vertex 6.41506 8 0
      vertex 0.062834 13.4974 0
      vertex 0.140447 13.7362 0
    endloop
  endfacet
  facet normal 0 0 -1
    outer loop
      vertex 6.41506 8 0
      vertex 0.140447 13.7362 0
      vertex 0.247387 13.9635 0
    endloop
  endfacet
  facet normal 0 0 -1
    outer loop
      vertex 6.41506 8 0
      vertex 0.247387 13.9635 0
      vertex 0.381966 14.1756 0
    endloop
  endfacet
  facet normal 0 0 -1
    outer loop
      vertex 6.41506 8 0
      vertex 0.381966 14.1756 0
      vertex 0.542063 14.3691 0
    endloop
  endfacet
  facet normal 0 0 -1
    outer loop
      vertex 6.41506 8 0
      vertex 0.542063 14.3691 0
      vertex 0.587881 14.4121 0
    endloop
  endfacet
  facet normal 0 0 -1
    outer loop
      vertex 6.41506 8 0
      vertex 0.587881 14.4121 0
      vertex 14.4121 0.587881 0
    endloop
  endfacet
  facet normal 0 0 -1
    outer loop
      vertex 6.41506 8 0
      vertex 14.4121 0.587881 0
      vertex 8.58013 4.25 0
    endloop
  endfacet
  facet normal 0 0 -1
    outer loop
      vertex 6.41506 0.5 0
      vertex 14.4121 0.587881 0
      vertex 14.2748 0.458974 0
    endloop
  endfacet
  facet normal 0 0 -1
    outer loop
      vertex 6.41506 0.5 0
      vertex 14.2748 0.458974 0
      vertex 2.08494 0.5 0
    endloop
  endfacet
  facet normal 0 0 -1
    outer loop
      vertex 2.08494 0.5 0
      vertex 14.2748 0.458974 0
      vertex 14.0717 0.311344 0
    endloop
  endfacet
  facet normal 0 0 -1
    outer loop
      vertex 2.08494 0.5 0
      vertex 14.0717 0.311344 0
      vertex 13.8516 0.190346 0
    endloop
  endfacet
  facet normal 0 0 -1
    outer loop
      vertex 2.08494 0.5 0
      vertex 13.8516 0.190346 0
      vertex 13.618 0.097887 0
    endloop
  endfacet
  facet normal 0 0 -1
    outer loop
      vertex 2.08494 0.5 0
      vertex 13.618 0.097887 0
      vertex 13.3748 0.035425 0
    endloop
  endfacet
  facet normal 0 0 -1
    outer loop
      vertex 2.08494 0.5 0
      vertex 13.3748 0.035425 0
      vertex 13.1256 0.003947 0
    endloop
  endfacet
  facet normal 0 0 -1
    outer loop
      vertex 2.08494 0.5 0
      vertex 13.1256 0.003947 0
      vertex 1.87442 0.003947 0
    endloop
  endfacet
  facet normal 0 0 -1
    outer loop
      vertex 2.08494 0.5 0
      vertex 1.87442 0.003947 0
      vertex 0.015771 1.74933 0
    endloop
  endfacet
  facet normal 0 0 -1
    outer loop
      vertex 0.015771 1.74933 0
      vertex 1.87442 0.003947 0
      vertex 1.62524 0.035425 0
    endloop
  endfacet
  facet normal 0 0 -1
    outer loop
      vertex 0.015771 1.74933 0
      vertex 1.62524 0.035425 0
      vertex 1.38197 0.097887 0
    endloop
  endfacet
  facet normal 0 0 -1
    outer loop
      vertex 0.015771 1.74933 0
      vertex 1.38197 0.097887 0
      vertex 1.14844 0.190346 0
    endloop
  endfacet
  facet normal 0 0 -1
    outer loop
      vertex 0.015771 1.74933 0
      vertex 1.14844 0.190346 0
      vertex 0.928346 0.311344 0
    endloop
  endfacet
  facet normal 0 0 -1
    outer loop
      vertex 0.015771 1.74933 0
      vertex 0.928346 0.311344 0
      vertex 0.725152 0.458974 0
    endloop
  endfacet
  facet normal 0 0 -1
    outer loop
      vertex 0.015771 1.74933 0
      vertex 0.725152 0.458974 0
      vertex 0.542063 0.630906 0
    endloop
  endfacet
  facet normal 0 0 -1
    outer loop
      vertex 0.015771 1.74933 0
      vertex 0.542063 0.630906 0
      vertex 0.381966 0.824429 0
    endloop
  endfacet
  facet normal 0 0 -1
    outer loop
      vertex 0.015771 1.74933 0
      vertex 0.381966 0.824429 0
      vertex 0.247387 1.03649 0
    endloop
  endfacet
  facet normal 0 0 -1
    outer loop
      vertex 0.015771 1.74933 0
      vertex 0.247387 1.03649 0
      vertex 0.140447 1.26375 0
    endloop
  endfacet
  facet normal 0 0 -1
    outer loop
      vertex 0.015771 1.74933 0
      vertex 0.140447 1.26375 0
      vertex 0.062834 1.50262 0
    endloop
  endfacet
  facet normal 0 0 -1
    outer loop
      vertex 0 4.11122 0
      vertex 0 4.38878 0
      vertex 2.08494 0.5 0
    endloop
  endfacet
  facet normal 0 0 -1
    outer loop
      vertex 1 4.25 0
      vertex 0 4.38878 0
      vertex 2.08494 8 0
    endloop
  endfacet
  facet normal 0 0 -1
    outer loop
      vertex 5.875 7.06458 0
      vertex 2.08494 8 0
      vertex 6.41506 8 0
    endloop
  endfacet
  facet normal 0 0 -1
    outer loop
      vertex 7.5 4.25 0
      vertex 6.41506 8 0
      vertex 8.58013 4.25 0
    endloop
  endfacet
  facet normal 0 0 -1
    outer loop
      vertex 5.875 1.43542 0
      vertex 8.58013 4.25 0
      vertex 6.41506 0.5 0
    endloop
  endfacet
  facet normal 0 0 -1
    outer loop
      vertex 2.08494 0.5 0
      vertex 0 4.38878 0
      vertex 1 4.25 0
    endloop
  endfacet
  facet normal 0 0 -1
    outer loop
      vertex 2.625 1.43542 0
      vertex 2.08494 0.5 0
      vertex 1 4.25 0
    endloop
  endfacet
  facet normal 0 0 -1
    outer loop
      vertex 5.875 1.43542 0
      vertex 2.08494 0.5 0
      vertex 2.625 1.43542 0
    endloop
  endfacet
  facet normal 0 0 -1
    outer loop
      vertex 7.5 4.25 0
      vertex 8.58013 4.25 0
      vertex 5.875 1.43542 0
    endloop
  endfacet
  facet normal 0 0 -1
    outer loop
      vertex 2.08494 0.5 0
      vertex 5.875 1.43542 0
      vertex 6.41506 0.5 0
    endloop
  endfacet
  facet normal 0 0 -1
    outer loop
      vertex 5.875 7.06458 0
      vertex 6.41506 8 0
      vertex 7.5 4.25 0
    endloop
  endfacet
  facet normal 0 0 -1
    outer loop
      vertex 2.625 7.06458 0
      vertex 2.08494 8 0
      vertex 5.875 7.06458 0
    endloop
  endfacet
  facet normal 0 0 -1
    outer loop
      vertex 1 4.25 0
      vertex 2.08494 8 0
      vertex 2.625 7.06458 0
    endloop
  endfacet
  facet normal -0.998027 0.0627922 0
    outer loop
      vertex 0 13 0
      vertex 0 13 7
      vertex 0.015771 13.2507 0
    endloop
  endfacet
  facet normal -0.998027 0.0627922 0
    outer loop
      vertex 0.015771 13.2507 0
      vertex 0 13 7
      vertex 0.015771 13.2507 7
    endloop
  endfacet
  facet normal 0 0 1
    outer loop
      vertex 0 13 7
      vertex 0 2 7
      vertex 0.015771 1.74933 7
    endloop
  endfacet
  facet normal 0 0 1
    outer loop
      vertex 0.140447 1.26375 7
      vertex 0 13 7
      vertex 0.062834 1.50262 7
    endloop
  endfacet
  facet normal 0 0 1
    outer loop
      vertex 0.062834 1.50262 7
      vertex 0 13 7
      vertex 0.015771 1.74933 7
    endloop
  endfacet
  facet normal 0 0 1
    outer loop
      vertex 0.247387 1.03649 7
      vertex 0 13 7
      vertex 0.140447 1.26375 7
    endloop
  endfacet
  facet normal 0 0 1
    outer loop
      vertex 0.381966 0.824429 7
      vertex 0 13 7
      vertex 0.247387 1.03649 7
    endloop
  endfacet
  facet normal 0 0 1
    outer loop
      vertex 0.542063 0.630906 7
      vertex 0 13 7
      vertex 0.381966 0.824429 7
    endloop
  endfacet
  facet normal 0 0 1
    outer loop
      vertex 0.725152 0.458974 7
      vertex 0 13 7
      vertex 0.542063 0.630906 7
    endloop
  endfacet
  facet normal 0 0 1
    outer loop
      vertex 0.928346 0.311344 7
      vertex 0 13 7
      vertex 0.725152 0.458974 7
    endloop
  endfacet
  facet normal 0 0 1
    outer loop
      vertex 1.14844 0.190346 7
      vertex 0 13 7
      vertex 0.928346 0.311344 7
    endloop
  endfacet
  facet normal 0 0 1
    outer loop
      vertex 1.38197 0.097887 7
      vertex 0 13 7
      vertex 1.14844 0.190346 7
    endloop
  endfacet
  facet normal 0 0 1
    outer loop
      vertex 1.62524 0.035425 7
      vertex 0 13 7
      vertex 1.38197 0.097887 7
    endloop
  endfacet
  facet normal 0 0 1
    outer loop
      vertex 1.87442 0.003947 7
      vertex 0 13 7
      vertex 1.62524 0.035425 7
    endloop
  endfacet
  facet normal 0 0 1
    outer loop
      vertex 2 2 7
      vertex 0 13 7
      vertex 1.87442 0.003947 7
    endloop
  endfacet
  facet normal 0 0 1
    outer loop
      vertex 2 2 7
      vertex 2 13 7
      vertex 0 13 7
    endloop
  endfacet
  facet normal 0 0 1
    outer loop
      vertex 13.1256 0.003947 7
      vertex 2 2 7
      vertex 1.87442 0.003947 7
    endloop
  endfacet
  facet normal 0 0 1
    outer loop
      vertex 0.587881 14.4121 7
      vertex 0 13 7
      vertex 2 13 7
    endloop
  endfacet
  facet normal 0 0 1
    outer loop
      vertex 0.542063 14.3691 7
      vertex 0 13 7
      vertex 0.587881 14.4121 7
    endloop
  endfacet
  facet normal 0 0 1
    outer loop
      vertex 0.381966 14.1756 7
      vertex 0 13 7
      vertex 0.542063 14.3691 7
    endloop
  endfacet
  facet normal 0 0 1
    outer loop
      vertex 0.247387 13.9635 7
      vertex 0 13 7
      vertex 0.381966 14.1756 7
    endloop
  endfacet
  facet normal 0 0 1
    outer loop
      vertex 0.140447 13.7362 7
      vertex 0 13 7
      vertex 0.247387 13.9635 7
    endloop
  endfacet
  facet normal 0 0 1
    outer loop
      vertex 0.062834 13.4974 7
      vertex 0 13 7
      vertex 0.140447 13.7362 7
    endloop
  endfacet
  facet normal 0 0 1
    outer loop
      vertex 0.015771 13.2507 7
      vertex 0 13 7
      vertex 0.062834 13.4974 7
    endloop
  endfacet
  facet normal 0 0 1
    outer loop
      vertex 13 2 7
      vertex 14.2748 0.458974 7
      vertex 14.4121 0.587881 7
    endloop
  endfacet
  facet normal 0 0 1
    outer loop
      vertex 13 2 7
      vertex 14.0717 0.311344 7
      vertex 14.2748 0.458974 7
    endloop
  endfacet
  facet normal 0 0 1
    outer loop
      vertex 13 2 7
      vertex 13.8516 0.190346 7
      vertex 14.0717 0.311344 7
    endloop
  endfacet
  facet normal 0 0 1
    outer loop
      vertex 13 2 7
      vertex 13.618 0.097887 7
      vertex 13.8516 0.190346 7
    endloop
  endfacet
  facet normal 0 0 1
    outer loop
      vertex 13 2 7
      vertex 13.3748 0.035425 7
      vertex 13.618 0.097887 7
    endloop
  endfacet
  facet normal 0 0 1
    outer loop
      vertex 13 2 7
      vertex 13.1256 0.003947 7
      vertex 13.3748 0.035425 7
    endloop
  endfacet
  facet normal 0 0 1
    outer loop
      vertex 13 2 7
      vertex 2 2 7
      vertex 13.1256 0.003947 7
    endloop
  endfacet
  facet normal -0.982287 -0.18738 0
    outer loop
      vertex 0.015771 1.74933 0
      vertex 0.062834 1.50262 0
      vertex 0.015771 1.74933 7
    endloop
  endfacet
  facet normal -0.982287 -0.18738 0
    outer loop
      vertex 0.015771 1.74933 7
      vertex 0.062834 1.50262 0
      vertex 0.062834 1.50262 7
    endloop
  endfacet
  facet normal -0.951057 -0.309016 0
    outer loop
      vertex 0.062834 1.50262 0
      vertex 0.140447 1.26375 0
      vertex 0.062834 1.50262 7
    endloop
  endfacet
  facet normal -0.951057 -0.309016 0
    outer loop
      vertex 0.062834 1.50262 7
      vertex 0.140447 1.26375 0
      vertex 0.140447 1.26375 7
    endloop
  endfacet
  facet normal -0.904826 -0.425781 0
    outer loop
      vertex 0.140447 1.26375 0
      vertex 0.247387 1.03649 0
      vertex 0.140447 1.26375 7
    endloop
  endfacet
  facet normal -0.904826 -0.425781 0
    outer loop
      vertex 0.140447 1.26375 7
      vertex 0.247387 1.03649 0
      vertex 0.247387 1.03649 7
    endloop
  endfacet
  facet normal -0.84433 -0.535824 0
    outer loop
      vertex 0.247387 1.03649 0
      vertex 0.381966 0.824429 0
      vertex 0.247387 1.03649 7
    endloop
  endfacet
  facet normal -0.84433 -0.535824 0
    outer loop
      vertex 0.247387 1.03649 7
      vertex 0.381966 0.824429 0
      vertex 0.381966 0.824429 7
    endloop
  endfacet
  facet normal -0.770512 -0.637426 0
    outer loop
      vertex 0.381966 0.824429 0
      vertex 0.542063 0.630906 0
      vertex 0.381966 0.824429 7
    endloop
  endfacet
  facet normal -0.770512 -0.637426 0
    outer loop
      vertex 0.381966 0.824429 7
      vertex 0.542063 0.630906 0
      vertex 0.542063 0.630906 7
    endloop
  endfacet
  facet normal -0.684547 -0.728969 0
    outer loop
      vertex 0.542063 0.630906 7
      vertex 0.542063 0.630906 0
      vertex 0.725152 0.458974 0
    endloop
  endfacet
  facet normal -0.684547 -0.728969 0
    outer loop
      vertex 0.725152 0.458974 7
      vertex 0.542063 0.630906 7
      vertex 0.725152 0.458974 0
    endloop
  endfacet
  facet normal -0.587788 -0.809015 0
    outer loop
      vertex 0.725152 0.458974 7
      vertex 0.725152 0.458974 0
      vertex 0.928346 0.311344 0
    endloop
  endfacet
  facet normal -0.587788 -0.809015 0
    outer loop
      vertex 0.928346 0.311344 7
      vertex 0.725152 0.458974 7
      vertex 0.928346 0.311344 0
    endloop
  endfacet
  facet normal -0.481753 -0.876307 0
    outer loop
      vertex 0.928346 0.311344 7
      vertex 0.928346 0.311344 0
      vertex 1.14844 0.190346 0
    endloop
  endfacet
  facet normal -0.481753 -0.876307 0
    outer loop
      vertex 1.14844 0.190346 7
      vertex 0.928346 0.311344 7
      vertex 1.14844 0.190346 0
    endloop
  endfacet
  facet normal -0.368124 -0.929777 0
    outer loop
      vertex 1.14844 0.190346 7
      vertex 1.14844 0.190346 0
      vertex 1.38197 0.097887 0
    endloop
  endfacet
  facet normal -0.368124 -0.929777 0
    outer loop
      vertex 1.38197 0.097887 7
      vertex 1.14844 0.190346 7
      vertex 1.38197 0.097887 0
    endloop
  endfacet
  facet normal -0.248692 -0.968583 0
    outer loop
      vertex 1.38197 0.097887 7
      vertex 1.38197 0.097887 0
      vertex 1.62524 0.035425 0
    endloop
  endfacet
  facet normal -0.248692 -0.968583 0
    outer loop
      vertex 1.62524 0.035425 7
      vertex 1.38197 0.097887 7
      vertex 1.62524 0.035425 0
    endloop
  endfacet
  facet normal -0.125329 -0.992115 0
    outer loop
      vertex 1.62524 0.035425 7
      vertex 1.62524 0.035425 0
      vertex 1.87442 0.003947 0
    endloop
  endfacet
  facet normal -0.125329 -0.992115 0
    outer loop
      vertex 1.87442 0.003947 7
      vertex 1.62524 0.035425 7
      vertex 1.87442 0.003947 0
    endloop
  endfacet
  facet normal 0 -1 0
    outer loop
      vertex 1.87442 0.003947 7
      vertex 1.87442 0.003947 0
      vertex 13.1256 0.003947 0
    endloop
  endfacet
  facet normal 0 -1 0
    outer loop
      vertex 13.1256 0.003947 7
      vertex 1.87442 0.003947 7
      vertex 13.1256 0.003947 0
    endloop
  endfacet
  facet normal 0.125329 -0.992115 0
    outer loop
      vertex 13.1256 0.003947 7
      vertex 13.1256 0.003947 0
      vertex 13.3748 0.035425 0
    endloop
  endfacet
  facet normal 0.125329 -0.992115 0
    outer loop
      vertex 13.3748 0.035425 7
      vertex 13.1256 0.003947 7
      vertex 13.3748 0.035425 0
    endloop
  endfacet
  facet normal 0.248692 -0.968583 0
    outer loop
      vertex 13.3748 0.035425 7
      vertex 13.3748 0.035425 0
      vertex 13.618 0.097887 0
    endloop
  endfacet
  facet normal 0.248692 -0.968583 0
    outer loop
      vertex 13.618 0.097887 7
      vertex 13.3748 0.035425 7
      vertex 13.618 0.097887 0
    endloop
  endfacet
  facet normal 0.368124 -0.929777 0
    outer loop
      vertex 13.618 0.097887 7
      vertex 13.618 0.097887 0
      vertex 13.8516 0.190346 0
    endloop
  endfacet
  facet normal 0.368124 -0.929777 0
    outer loop
      vertex 13.8516 0.190346 7
      vertex 13.618 0.097887 7
      vertex 13.8516 0.190346 0
    endloop
  endfacet
  facet normal 0.481753 -0.876307 0
    outer loop
      vertex 13.8516 0.190346 7
      vertex 13.8516 0.190346 0
      vertex 14.0717 0.311344 0
    endloop
  endfacet
  facet normal 0.481753 -0.876307 0
    outer loop
      vertex 14.0717 0.311344 7
      vertex 13.8516 0.190346 7
      vertex 14.0717 0.311344 0
    endloop
  endfacet
  facet normal 0.587788 -0.809015 0
    outer loop
      vertex 14.0717 0.311344 7
      vertex 14.0717 0.311344 0
      vertex 14.2748 0.458974 0
    endloop
  endfacet
  facet normal 0.587788 -0.809015 0
    outer loop
      vertex 14.2748 0.458974 7
      vertex 14.0717 0.311344 7
      vertex 14.2748 0.458974 0
    endloop
  endfacet
  facet normal 0.684547 -0.728969 0
    outer loop
      vertex 14.2748 0.458974 7
      vertex 14.2748 0.458974 0
      vertex 14.4121 0.587881 0
    endloop
  endfacet
  facet normal 0.684547 -0.728969 0
    outer loop
      vertex 14.4121 0.587881 7
      vertex 14.2748 0.458974 7
      vertex 14.4121 0.587881 0
    endloop
  endfacet
  facet normal 0.707107 0.707107 0
    outer loop
      vertex 2 13 7
      vertex 2 13 2
      vertex 0.587881 14.4121 7
    endloop
  endfacet
  facet normal 0.707107 0.707107 0
    outer loop
      vertex 0.587881 14.4121 0
      vertex 2 13 2
      vertex 14.4121 0.587881 0
    endloop
  endfacet
  facet normal 0.707107 0.707107 0
    outer loop
      vertex 14.4121 0.587881 7
      vertex 13 2 2
      vertex 13 2 7
    endloop
  endfacet
  facet normal 0.707107 0.707107 0
    outer loop
      vertex 14.4121 0.587881 0
      vertex 13 2 2
      vertex 14.4121 0.587881 7
    endloop
  endfacet
  facet normal 0.707107 0.707107 0
    outer loop
      vertex 2 13 2
      vertex 13 2 2
      vertex 14.4121 0.587881 0
    endloop
  endfacet
  facet normal 0.707107 0.707107 0
    outer loop
      vertex 0.587881 14.4121 7
      vertex 2 13 2
      vertex 0.587881 14.4121 0
    endloop
  endfacet
  facet normal -0.684547 0.728969 0
    outer loop
      vertex 0.542063 14.3691 0
      vertex 0.542063 14.3691 7
      vertex 0.587881 14.4121 0
    endloop
  endfacet
  facet normal -0.684547 0.728969 0
    outer loop
      vertex 0.587881 14.4121 0
      vertex 0.542063 14.3691 7
      vertex 0.587881 14.4121 7
    endloop
  endfacet
  facet normal -0.770512 0.637426 0
    outer loop
      vertex 0.381966 14.1756 0
      vertex 0.381966 14.1756 7
      vertex 0.542063 14.3691 0
    endloop
  endfacet
  facet normal -0.770512 0.637426 0
    outer loop
      vertex 0.542063 14.3691 0
      vertex 0.381966 14.1756 7
      vertex 0.542063 14.3691 7
    endloop
  endfacet
  facet normal -0.84433 0.535824 0
    outer loop
      vertex 0.247387 13.9635 0
      vertex 0.247387 13.9635 7
      vertex 0.381966 14.1756 0
    endloop
  endfacet
  facet normal -0.84433 0.535824 0
    outer loop
      vertex 0.381966 14.1756 0
      vertex 0.247387 13.9635 7
      vertex 0.381966 14.1756 7
    endloop
  endfacet
  facet normal -0.904826 0.425781 0
    outer loop
      vertex 0.140447 13.7362 0
      vertex 0.140447 13.7362 7
      vertex 0.247387 13.9635 0
    endloop
  endfacet
  facet normal -0.904826 0.425781 0
    outer loop
      vertex 0.247387 13.9635 0
      vertex 0.140447 13.7362 7
      vertex 0.247387 13.9635 7
    endloop
  endfacet
  facet normal -0.951057 0.309016 0
    outer loop
      vertex 0.062834 13.4974 0
      vertex 0.062834 13.4974 7
      vertex 0.140447 13.7362 0
    endloop
  endfacet
  facet normal -0.951057 0.309016 0
    outer loop
      vertex 0.140447 13.7362 0
      vertex 0.062834 13.4974 7
      vertex 0.140447 13.7362 7
    endloop
  endfacet
  facet normal -0.982287 0.18738 0
    outer loop
      vertex 0.015771 13.2507 0
      vertex 0.015771 13.2507 7
      vertex 0.062834 13.4974 0
    endloop
  endfacet
  facet normal -0.982287 0.18738 0
    outer loop
      vertex 0.062834 13.4974 0
      vertex 0.015771 13.2507 7
      vertex 0.062834 13.4974 7
    endloop
  endfacet
  facet normal 0.866025 0.5 0
    outer loop
      vertex 2.29904 2 2
      vertex 2.625 1.43542 0
      vertex 2 2.51795 2
    endloop
  endfacet
  facet normal 0.866025 0.5 0
    outer loop
      vertex 1 4.25 3
      vertex 2 2.51795 3
      vertex 2 2.51795 2
    endloop
  endfacet
  facet normal 0.866025 0.5 0
    outer loop
      vertex 2.625 1.43542 0
      vertex 1 4.25 3
      vertex 2 2.51795 2
    endloop
  endfacet
  facet normal 0.866025 0.5 0
    outer loop
      vertex 2.29904 2 3
      vertex 2.625 1.43542 3
      vertex 2.29904 2 2
    endloop
  endfacet
  facet normal 0.866025 0.5 0
    outer loop
      vertex 2.625 1.43542 3
      vertex 2.625 1.43542 0
      vertex 2.29904 2 2
    endloop
  endfacet
  facet normal 0.866025 0.5 0
    outer loop
      vertex 2.625 1.43542 0
      vertex 1 4.25 0
      vertex 1 4.25 3
    endloop
  endfacet
  facet normal 0.866025 -0.5 0
    outer loop
      vertex 2.625 7.06458 0
      vertex 2.625 7.06458 2
      vertex 2 5.98205 2
    endloop
  endfacet
  facet normal 0.866025 -0.5 0
    outer loop
      vertex 1 4.25 3
      vertex 2.625 7.06458 0
      vertex 2 5.98205 2
    endloop
  endfacet
  facet normal 0.866025 -0.5 0
    outer loop
      vertex 2 5.98205 3
      vertex 1 4.25 3
      vertex 2 5.98205 2
    endloop
  endfacet
  facet normal 0.866025 -0.5 0
    outer loop
      vertex 1 4.25 3
      vertex 1 4.25 0
      vertex 2.625 7.06458 0
    endloop
  endfacet
  facet normal 0 -1 0
    outer loop
      vertex 5.875 7.06458 0
      vertex 5.875 7.06458 2
      vertex 2.625 7.06458 2
    endloop
  endfacet
  facet normal 0 -1 0
    outer loop
      vertex 2.625 7.06458 0
      vertex 5.875 7.06458 0
      vertex 2.625 7.06458 2
    endloop
  endfacet
  facet normal -0.866025 -0.5 0
    outer loop
      vertex 7.5 4.25 2
      vertex 5.875 7.06458 2
      vertex 7.5 4.25 0
    endloop
  endfacet
  facet normal -0.866025 -0.5 0
    outer loop
      vertex 7.5 4.25 0
      vertex 5.875 7.06458 2
      vertex 5.875 7.06458 0
    endloop
  endfacet
  facet normal -0.866025 0.5 0
    outer loop
      vertex 6.20096 2 3
      vertex 6.20096 2 2
      vertex 5.875 1.43542 3
    endloop
  endfacet
  facet normal -0.866025 0.5 0
    outer loop
      vertex 7.5 4.25 0
      vertex 6.20096 2 2
      vertex 7.5 4.25 2
    endloop
  endfacet
  facet normal -0.866025 0.5 0
    outer loop
      vertex 5.875 1.43542 0
      vertex 6.20096 2 2
      vertex 7.5 4.25 0
    endloop
  endfacet
  facet normal -0.866025 0.5 0
    outer loop
      vertex 5.875 1.43542 3
      vertex 6.20096 2 2
      vertex 5.875 1.43542 0
    endloop
  endfacet
  facet normal 0 1 0
    outer loop
      vertex 5.875 1.43542 3
      vertex 5.875 1.43542 0
      vertex 2.625 1.43542 3
    endloop
  endfacet
  facet normal 0 1 0
    outer loop
      vertex 2.625 1.43542 3
      vertex 5.875 1.43542 0
      vertex 2.625 1.43542 0
    endloop
  endfacet
  facet normal 1 0 0
    outer loop
      vertex 2 13 7
      vertex 2 2.51795 3
      vertex 2 5.98205 3
    endloop
  endfacet
  facet normal 1 0 0
    outer loop
      vertex 2 2.51795 2
      vertex 2 2.51795 3
      vertex 2 2 7
    endloop
  endfacet
  facet normal 1 0 0
    outer loop
      vertex 2 5.98205 2
      vertex 2 13 2
      vertex 2 5.98205 3
    endloop
  endfacet
  facet normal 1 0 0
    outer loop
      vertex 2 13 2
      vertex 2 13 7
      vertex 2 5.98205 3
    endloop
  endfacet
  facet normal 1 0 0
    outer loop
      vertex 2 13 7
      vertex 2 2 7
      vertex 2 2.51795 3
    endloop
  endfacet
  facet normal 1 0 0
    outer loop
      vertex 2 2 7
      vertex 2 2 2
      vertex 2 2.51795 2
    endloop
  endfacet
  facet normal 0 1 0
    outer loop
      vertex 13 2 7
      vertex 13 2 2
      vertex 2 2 7
    endloop
  endfacet
  facet normal 0 1 0
    outer loop
      vertex 6.20096 2 3
      vertex 13 2 2
      vertex 6.20096 2 2
    endloop
  endfacet
  facet normal 0 1 0
    outer loop
      vertex 2 2 7
      vertex 13 2 2
      vertex 6.20096 2 3
    endloop
  endfacet
  facet normal 0 1 0
    outer loop
      vertex 2 2 7
      vertex 2.29904 2 3
      vertex 2.29904 2 2
    endloop
  endfacet
  facet normal 0 1 0
    outer loop
      vertex 2 2 7
      vertex 2.29904 2 2
      vertex 2 2 2
    endloop
  endfacet
  facet normal 0 1 0
    outer loop
      vertex 2.29904 2 3
      vertex 2 2 7
      vertex 6.20096 2 3
    endloop
  endfacet
  facet normal 0 0 1
    outer loop
      vertex 13 2 2
      vertex 5.875 7.06458 2
      vertex 7.5 4.25 2
    endloop
  endfacet
  facet normal 0 0 1
    outer loop
      vertex 2.625 7.06458 2
      vertex 5.875 7.06458 2
      vertex 2 13 2
    endloop
  endfacet
  facet normal 0 0 1
    outer loop
      vertex 6.20096 2 2
      vertex 13 2 2
      vertex 7.5 4.25 2
    endloop
  endfacet
  facet normal 0 0 1
    outer loop
      vertex 13 2 2
      vertex 2 13 2
      vertex 5.875 7.06458 2
    endloop
  endfacet
  facet normal 0 0 1
    outer loop
      vertex 2.625 7.06458 2
      vertex 2 13 2
      vertex 2 5.98205 2
    endloop
  endfacet
  facet normal 0 0 -1
    outer loop
      vertex 2 5.98205 3
      vertex 2 2.51795 3
      vertex 1 4.25 3
    endloop
  endfacet
  facet normal 0 0 -1
    outer loop
      vertex 5.875 1.43542 3
      vertex 2.625 1.43542 3
      vertex 6.20096 2 3
    endloop
  endfacet
  facet normal 0 0 -1
    outer loop
      vertex 6.20096 2 3
      vertex 2.625 1.43542 3
      vertex 2.29904 2 3
    endloop
  endfacet
  facet normal 0 0 1
    outer loop
      vertex 2.29904 2 2
      vertex 2 2.51795 2
      vertex 2 2 2
    endloop
  endfacet
endsolid OpenSCAD_Model
